REM DIRINDEX 1\5,1\2\6,1\2\7,1\3\8,1\3\9,1\4\10,1\4\11,1\4\12
REM DIRNAME folder01,folder02,folder03,folder04,folder05,folder06,folder07,folder08,folder09,folder10,folder11,folder12
TITLE ""
FILE "EJE_DB3000_5th_6C_40.mp3" MP3
  TRACK 01 AUDIO
    TITLE "0:"
    INDEX 01 00:00:00
  TRACK 02 AUDIO
    TITLE "10:cjc026_11697"
    INDEX 01 00:00:05
  TRACK 03 AUDIO
    TITLE "0:"
    INDEX 01 00:01:68
  TRACK 04 AUDIO
    TITLE "11:cjc026_11698"
    INDEX 01 00:02:20
  TRACK 05 AUDIO
    TITLE "0:"
    INDEX 01 00:03:27
  TRACK 06 AUDIO
    TITLE "12:cjc026_11699"
    INDEX 01 00:03:51
  TRACK 07 AUDIO
    TITLE "0:"
    INDEX 01 00:05:40
  TRACK 08 AUDIO
    TITLE "10:cjc026_11700"
    INDEX 01 00:05:65
  TRACK 09 AUDIO
    TITLE "0:"
    INDEX 01 00:06:65
  TRACK 10 AUDIO
    TITLE "11:cjc026_11701"
    INDEX 01 00:07:17
  TRACK 11 AUDIO
    TITLE "0:"
    INDEX 01 00:08:09
  TRACK 12 AUDIO
    TITLE "12:cjc026_11702"
    INDEX 01 00:08:32
  TRACK 13 AUDIO
    TITLE "0:"
    INDEX 01 00:09:32
  TRACK 14 AUDIO
    TITLE "10:cjc026_11703"
    INDEX 01 00:09:59
  TRACK 15 AUDIO
    TITLE "0:"
    INDEX 01 00:11:42
  TRACK 16 AUDIO
    TITLE "11:cjc026_11704"
    INDEX 01 00:11:70
  TRACK 17 AUDIO
    TITLE "0:"
    INDEX 01 00:13:10
  TRACK 18 AUDIO
    TITLE "12:cjc026_11705"
    INDEX 01 00:13:35
  TRACK 19 AUDIO
    TITLE "0:"
    INDEX 01 00:15:19
  TRACK 20 AUDIO
    TITLE "10:cjc026_11706"
    INDEX 01 00:15:44
  TRACK 21 AUDIO
    TITLE "0:"
    INDEX 01 00:16:30
  TRACK 22 AUDIO
    TITLE "11:cjc026_11707"
    INDEX 01 00:16:55
  TRACK 23 AUDIO
    TITLE "0:"
    INDEX 01 00:17:55
  TRACK 24 AUDIO
    TITLE "12:cjc026_11708"
    INDEX 01 00:18:05
  TRACK 25 AUDIO
    TITLE "0:"
    INDEX 01 00:18:66
  TRACK 26 AUDIO
    TITLE "10:cjc026_11709"
    INDEX 01 00:19:16
  TRACK 27 AUDIO
    TITLE "0:"
    INDEX 01 00:20:16
  TRACK 28 AUDIO
    TITLE "11:cjc026_11710"
    INDEX 01 00:20:39
  TRACK 29 AUDIO
    TITLE "0:"
    INDEX 01 00:21:49
  TRACK 30 AUDIO
    TITLE "12:cjc026_11711"
    INDEX 01 00:21:74
  TRACK 31 AUDIO
    TITLE "0:"
    INDEX 01 00:22:74
  TRACK 32 AUDIO
    TITLE "10:cjc026_11712"
    INDEX 01 00:23:24
  TRACK 33 AUDIO
    TITLE "0:"
    INDEX 01 00:24:14
  TRACK 34 AUDIO
    TITLE "11:cjc026_11713"
    INDEX 01 00:24:41
  TRACK 35 AUDIO
    TITLE "0:"
    INDEX 01 00:25:46
  TRACK 36 AUDIO
    TITLE "12:cjc026_11714"
    INDEX 01 00:25:74
  TRACK 37 AUDIO
    TITLE "0:"
    INDEX 01 00:26:66
  TRACK 38 AUDIO
    TITLE "10:cjc026_11715"
    INDEX 01 00:27:16
  TRACK 39 AUDIO
    TITLE "0:"
    INDEX 01 00:28:10
  TRACK 40 AUDIO
    TITLE "11:cjc026_11716"
    INDEX 01 00:28:37
  TRACK 41 AUDIO
    TITLE "0:"
    INDEX 01 00:29:36
  TRACK 42 AUDIO
    TITLE "12:cjc026_11717"
    INDEX 01 00:29:62
  TRACK 43 AUDIO
    TITLE "0:"
    INDEX 01 00:30:57
  TRACK 44 AUDIO
    TITLE "10:cjc026_11718"
    INDEX 01 00:31:08
  TRACK 45 AUDIO
    TITLE "0:"
    INDEX 01 00:32:05
  TRACK 46 AUDIO
    TITLE "11:cjc026_11719"
    INDEX 01 00:32:33
  TRACK 47 AUDIO
    TITLE "0:"
    INDEX 01 00:33:32
  TRACK 48 AUDIO
    TITLE "12:cjc026_11720"
    INDEX 01 00:33:54
  TRACK 49 AUDIO
    TITLE "0:"
    INDEX 01 00:34:51
  TRACK 50 AUDIO
    TITLE "10:cjc026_11721"
    INDEX 01 00:35:04
  TRACK 51 AUDIO
    TITLE "0:"
    INDEX 01 00:36:13
  TRACK 52 AUDIO
    TITLE "11:cjc026_11722"
    INDEX 01 00:36:38
  TRACK 53 AUDIO
    TITLE "0:"
    INDEX 01 00:37:22
  TRACK 54 AUDIO
    TITLE "12:cjc026_11723"
    INDEX 01 00:37:50
  TRACK 55 AUDIO
    TITLE "0:"
    INDEX 01 00:38:57
  TRACK 56 AUDIO
    TITLE "10:cjc026_11724"
    INDEX 01 00:39:07
  TRACK 57 AUDIO
    TITLE "0:"
    INDEX 01 00:40:07
  TRACK 58 AUDIO
    TITLE "11:cjc026_11725"
    INDEX 01 00:40:26
  TRACK 59 AUDIO
    TITLE "0:"
    INDEX 01 00:41:12
  TRACK 60 AUDIO
    TITLE "12:cjc026_11726"
    INDEX 01 00:41:38
  TRACK 61 AUDIO
    TITLE "0:"
    INDEX 01 00:42:35
  TRACK 62 AUDIO
    TITLE "10:cjc026_11727"
    INDEX 01 00:42:59
  TRACK 63 AUDIO
    TITLE "0:"
    INDEX 01 00:43:58
  TRACK 64 AUDIO
    TITLE "11:cjc026_11728"
    INDEX 01 00:44:09
  TRACK 65 AUDIO
    TITLE "0:"
    INDEX 01 00:44:73
  TRACK 66 AUDIO
    TITLE "12:cjc026_11729"
    INDEX 01 00:45:22
  TRACK 67 AUDIO
    TITLE "0:"
    INDEX 01 00:46:21
  TRACK 68 AUDIO
    TITLE "10:cjc026_11730"
    INDEX 01 00:46:45
  TRACK 69 AUDIO
    TITLE "0:"
    INDEX 01 00:47:46
  TRACK 70 AUDIO
    TITLE "11:cjc026_11731"
    INDEX 01 00:47:74
  TRACK 71 AUDIO
    TITLE "0:"
    INDEX 01 00:48:67
  TRACK 72 AUDIO
    TITLE "12:cjc026_11732"
    INDEX 01 00:49:18
  TRACK 73 AUDIO
    TITLE "0:"
    INDEX 01 00:50:19
  TRACK 74 AUDIO
    TITLE "10:cjc026_11733"
    INDEX 01 00:50:44
  TRACK 75 AUDIO
    TITLE "0:"
    INDEX 01 00:51:50
  TRACK 76 AUDIO
    TITLE "11:cjc026_11734"
    INDEX 01 00:52:00
  TRACK 77 AUDIO
    TITLE "0:"
    INDEX 01 00:53:08
  TRACK 78 AUDIO
    TITLE "12:cjc026_11735"
    INDEX 01 00:53:33
  TRACK 79 AUDIO
    TITLE "0:"
    INDEX 01 00:54:38
  TRACK 80 AUDIO
    TITLE "10:cjc026_11736"
    INDEX 01 00:54:64
  TRACK 81 AUDIO
    TITLE "0:"
    INDEX 01 00:55:67
  TRACK 82 AUDIO
    TITLE "11:cjc026_11737"
    INDEX 01 00:56:18
  TRACK 83 AUDIO
    TITLE "0:"
    INDEX 01 00:57:21
  TRACK 84 AUDIO
    TITLE "12:cjc026_11738"
    INDEX 01 00:57:48
  TRACK 85 AUDIO
    TITLE "0:"
    INDEX 01 00:58:50
